<svg width="66" height="66" viewBox="0 0 66 66" fill="none" xmlns="http://www.w3.org/2000/svg">
<mask id="mask0_208_13" style="mask-type:alpha" maskUnits="userSpaceOnUse" x="0" y="0" width="66" height="66">
<path d="M14 0C6.27961 0 0 6.27961 0 14V52C0 59.7204 6.27961 66 14 66H52C59.7204 66 66 59.7204 66 52V14C66 6.27961 59.7204 0 52 0H14ZM14 2H52C58.6396 2 64 7.36039 64 14V52C64 58.6396 58.6396 64 52 64H14C7.36039 64 2 58.6396 2 52V14C2 7.36039 7.36039 2 14 2ZM23 9C15.2848 9 9 15.2848 9 23V43C9 50.7152 15.2848 57 23 57H43C50.7152 57 57 50.7152 57 43V23C57 15.2848 50.7152 9 43 9H23ZM23 10H43C50.1728 10 56 15.8272 56 23V43C56 50.1728 50.1728 56 43 56H23C15.8272 56 10 50.1728 10 43V23C10 15.8272 15.8272 10 23 10ZM23 13C17.4908 13 13 17.4908 13 23V43C13 48.5092 17.4908 53 23 53H43C48.5092 53 53 48.5092 53 43V23C53 17.4908 48.5092 13 43 13H23ZM23 14H43C47.9668 14 52 18.0332 52 23V43C52 47.9668 47.9668 52 43 52H23C18.0332 52 14 47.9668 14 43V23C14 18.0332 18.0332 14 23 14ZM45.5 17C44.375 17 43.4686 17.4399 42.877 18.1055C42.2853 18.7711 42 19.6389 42 20.5C42 21.3611 42.2853 22.2289 42.877 22.8945C43.4686 23.5601 44.375 24 45.5 24C46.625 24 47.5314 23.5601 48.123 22.8945C48.7147 22.2289 49 21.3611 49 20.5C49 19.6389 48.7147 18.7711 48.123 18.1055C47.5314 17.4399 46.625 17 45.5 17ZM45.5 18C46.375 18 46.9686 18.3101 47.377 18.7695C47.7853 19.2289 48 19.8611 48 20.5C48 21.1389 47.7853 21.7711 47.377 22.2305C46.9686 22.6899 46.375 23 45.5 23C44.625 23 44.0314 22.6899 43.623 22.2305C43.2147 21.7711 43 21.1389 43 20.5C43 19.8611 43.2147 19.2289 43.623 18.7695C44.0314 18.3101 44.625 18 45.5 18ZM33 21C26.3785 21 21 26.3785 21 33C21 39.6215 26.3785 45 33 45C39.6215 45 45 39.6215 45 33C45 26.3785 39.6215 21 33 21ZM33 22C39.0811 22 44 26.9189 44 33C44 39.0811 39.0811 44 33 44C26.9189 44 22 39.0811 22 33C22 26.9189 26.9189 22 33 22ZM33 25C28.5876 25 25 28.5876 25 33C25 37.4124 28.5876 41 33 41C37.4124 41 41 37.4124 41 33C41 28.5876 37.4124 25 33 25ZM33 26C36.8719 26 40 29.1281 40 33C40 36.8719 36.8719 40 33 40C29.1281 40 26 36.8719 26 33C26 29.1281 29.1281 26 33 26Z" fill="black"/>
</mask>
<g mask="url(#mask0_208_13)">
<rect x="-40" y="-31" width="146" height="139" fill="black"/>
</g>
</svg>
