<svg width="72" height="72" viewBox="0 0 72 72" fill="none" xmlns="http://www.w3.org/2000/svg">
<mask id="mask0_208_16" style="mask-type:alpha" maskUnits="userSpaceOnUse" x="0" y="0" width="72" height="72">
<path d="M36 0C16.1296 0 0 16.1296 0 36C0 55.8704 16.1296 72 36 72C55.8704 72 72 55.8704 72 36C72 16.1296 55.8704 0 36 0ZM36 2C54.7895 2 70 17.2105 70 36C70 54.7895 54.7895 70 36 70C17.2105 70 2 54.7895 2 36C2 17.2105 17.2105 2 36 2ZM36 5C18.8848 5 5 18.8848 5 36C5 53.1152 18.8848 67 36 67C53.1152 67 67 53.1152 67 36C67 26.9044 63.0791 18.7168 56.8359 13.0469C56.7877 13.0005 56.7307 12.9643 56.6683 12.9403C56.6058 12.9164 56.5392 12.9052 56.4723 12.9075C56.4055 12.9098 56.3398 12.9254 56.2791 12.9536C56.2184 12.9817 56.164 13.0217 56.119 13.0712C56.0741 13.1207 56.0395 13.1788 56.0174 13.2419C55.9953 13.305 55.986 13.3719 55.9902 13.4387C55.9944 13.5054 56.012 13.5707 56.0418 13.6305C56.0717 13.6904 56.1133 13.7436 56.1641 13.7871C62.2069 19.2752 66 27.1916 66 36C66 52.5748 52.5748 66 36 66C19.4252 66 6 52.5748 6 36C6 19.4252 19.4252 6 36 6C39.6307 6 43.1081 6.64594 46.3281 7.82617C46.3898 7.84875 46.4553 7.85896 46.521 7.85621C46.5866 7.85347 46.6511 7.83781 46.7106 7.81016C46.7702 7.7825 46.8238 7.74338 46.8682 7.69502C46.9127 7.64667 46.9472 7.59003 46.9698 7.52834C46.9924 7.46665 47.0026 7.40112 46.9998 7.33549C46.997 7.26985 46.9814 7.20541 46.9537 7.14583C46.9261 7.08625 46.8869 7.0327 46.8386 6.98824C46.7902 6.94378 46.7336 6.90928 46.6719 6.88672C43.3439 5.66695 39.7493 5 36 5ZM49.4805 8.14062C49.3681 8.14339 49.26 8.18391 49.1735 8.25566C49.087 8.3274 49.0272 8.42619 49.0037 8.53609C48.9803 8.64599 48.9945 8.76059 49.0441 8.86141C49.0938 8.96223 49.1759 9.04339 49.2773 9.0918C49.9471 9.42323 50.6045 9.77934 51.2461 10.1582C51.3027 10.1932 51.3657 10.2165 51.4315 10.2269C51.4972 10.2372 51.5644 10.2343 51.629 10.2183C51.6936 10.2024 51.7543 10.1737 51.8077 10.1339C51.8611 10.0942 51.906 10.0442 51.9398 9.98683C51.9736 9.9295 51.9956 9.866 52.0046 9.80006C52.0135 9.73411 52.0092 9.66704 51.9919 9.60278C51.9746 9.53852 51.9446 9.47836 51.9037 9.42583C51.8629 9.37331 51.8119 9.32946 51.7539 9.29688C51.0915 8.90574 50.4149 8.53788 49.7227 8.19531C49.6478 8.15701 49.5645 8.1382 49.4805 8.14062ZM53.5078 10.5117C53.4909 10.5115 53.4739 10.5122 53.457 10.5137C53.3536 10.5214 53.2551 10.5611 53.1752 10.6273C53.0953 10.6934 53.0379 10.7828 53.0111 10.883C52.9843 10.9833 52.9893 11.0893 53.0255 11.1866C53.0616 11.2838 53.1271 11.3674 53.2129 11.4258C53.5456 11.6591 53.8732 11.9 54.1953 12.1465C54.2475 12.1865 54.3071 12.2158 54.3706 12.2328C54.4341 12.2498 54.5004 12.2542 54.5656 12.2455C54.6308 12.2369 54.6937 12.2156 54.7506 12.1826C54.8076 12.1497 54.8575 12.1059 54.8975 12.0537C54.9375 12.0015 54.9668 11.942 54.9838 11.8784C55.0008 11.8149 55.0051 11.7486 54.9965 11.6834C54.9879 11.6182 54.9665 11.5554 54.9336 11.4984C54.9007 11.4415 54.8569 11.3916 54.8047 11.3516C54.4708 11.096 54.1304 10.8481 53.7871 10.6074C53.7058 10.5481 53.6084 10.5148 53.5078 10.5117ZM50.375 20C49.4761 20 48.6014 20.4132 48.5996 20.4141L15.75 33.7129C15.7026 33.7286 15.3401 33.8517 14.9414 34.1172C14.5161 34.4004 14 34.8911 14 35.627C14 36.4132 14.4807 36.9651 14.9043 37.2695C15.3279 37.574 15.75 37.6973 15.75 37.6973C15.7539 37.698 15.7578 37.6986 15.7617 37.6992L23.3633 39.7617C23.442 39.982 24.3004 42.3822 25.2461 45.0254C25.7402 46.4063 26.2372 47.7918 26.6152 48.8457C26.8043 49.3727 26.9634 49.8164 27.0781 50.1348C27.1355 50.2939 27.1816 50.4221 27.2148 50.5137C27.2481 50.6053 27.2544 50.6287 27.2793 50.6895C27.4806 51.182 27.6627 51.4672 27.8379 51.6523C27.9255 51.7449 28.0142 51.8116 28.0996 51.8574C28.1206 51.8687 28.1401 51.8742 28.1602 51.8828C28.1634 51.8848 28.1666 51.8868 28.1699 51.8887C28.1732 51.8902 28.1764 51.891 28.1797 51.8926C28.1937 51.8981 28.2088 51.9059 28.2227 51.9102C28.2395 51.9153 28.2493 51.9159 28.2695 51.9199C28.4305 51.9776 28.5932 52.0037 28.7422 51.9941C29.2267 51.9744 29.5664 51.707 29.5664 51.707C29.5772 51.6984 29.5876 51.6892 29.5977 51.6797L34.5508 47.1035L42.0391 53.4395C42.0391 53.4395 42.2231 53.6046 42.5059 53.7383C42.7886 53.872 43.2018 54 43.7266 54C44.6997 54 45.3573 53.5646 45.7051 53.123C46.0528 52.6815 46.1348 52.2148 46.1348 52.2148V52.2227C46.1348 52.2227 47.5808 44.7268 49.0332 37.1973C49.7594 33.4325 50.487 29.6596 51.0352 26.8105C51.3092 25.386 51.5392 24.1917 51.7012 23.3457C51.7821 22.9227 51.8461 22.5866 51.8906 22.3516C51.9129 22.2341 51.9311 22.1418 51.9434 22.0762C51.9556 22.0105 51.957 22.0149 51.9668 21.9434C51.986 21.8043 52 21.6541 52 21.5C52 21.0542 51.8026 20.6457 51.4941 20.3848C51.1857 20.1238 50.7875 20 50.375 20ZM50.375 21C50.5875 21 50.7518 21.0637 50.8496 21.1465C50.9474 21.2293 51 21.3208 51 21.5C51 21.5879 50.9913 21.6997 50.9766 21.8066C50.9841 21.752 50.9709 21.8309 50.959 21.8945C50.9471 21.9582 50.9304 22.0491 50.9082 22.166C50.8639 22.3999 50.7997 22.7355 50.7188 23.1582C50.5569 24.0036 50.3287 25.1967 50.0547 26.6211C49.5066 29.4698 48.7789 33.2431 48.0527 37.0078C46.6004 44.5372 45.1523 52.0332 45.1523 52.0332C45.1517 52.0358 45.151 52.0384 45.1504 52.041C45.1504 52.041 45.1124 52.2595 44.9199 52.5039C44.7275 52.7484 44.4264 53 43.7266 53C43.3613 53 43.1013 52.9152 42.9336 52.8359C42.7659 52.7566 42.7207 52.709 42.7207 52.709C42.715 52.703 42.7091 52.6971 42.7031 52.6914L30.6191 42.4648L45.541 28.2734L45.502 28.3066C45.8304 28.0538 46 27.668 46 27.2852V27.2832C45.9984 27.0159 45.9138 26.7422 45.7402 26.5117C45.4974 26.1853 45.1195 26.0022 44.7383 26H44.7363C44.4608 25.9987 44.184 26.0915 43.9551 26.2676L43.9961 26.2383L23.7461 38.7715L23.998 38.9141C23.9611 38.8936 23.9217 38.8778 23.8809 38.8672L16.0273 36.7363L16.0234 36.7344C16.0143 36.7316 15.756 36.6514 15.4883 36.459C15.2159 36.2632 15 36.0197 15 35.627C15 35.3778 15.2024 35.1448 15.4961 34.9492C15.7898 34.7537 16.0918 34.6523 16.0918 34.6523C16.103 34.6488 16.1141 34.6449 16.125 34.6406L48.9883 21.3359C48.9929 21.3341 48.9974 21.3321 49.002 21.3301C49.002 21.3301 49.8149 21 50.375 21ZM44.7324 27C44.8086 27.0003 44.8807 27.0303 44.9395 27.1094L44.9414 27.1113C44.9796 27.1616 44.9992 27.2226 45 27.2871C44.9995 27.3755 44.9617 27.4609 44.8906 27.5156C44.877 27.526 44.864 27.5371 44.8516 27.5488L29.5254 42.125C29.4463 42.2006 29.3941 42.3001 29.377 42.4082H29.373L28.1074 50.043C28.0801 49.9675 28.0551 49.9011 28.0176 49.7969C27.9032 49.4794 27.7436 49.0345 27.5547 48.5078C27.1768 47.4544 26.6815 46.0682 26.1875 44.6875C25.2675 42.1162 24.4767 39.9074 24.3555 39.5684L44.5234 27.0879C44.5376 27.0788 44.5513 27.069 44.5645 27.0586C44.621 27.0151 44.6786 26.9997 44.7324 27ZM30.2168 43.4355L33.7812 46.4531L28.9824 50.8867L30.2168 43.4355Z" fill="black"/>
</mask>
<g mask="url(#mask0_208_16)">
<rect x="-37" y="-33" width="146" height="139" fill="black"/>
</g>
</svg>
