<svg width="113" height="113" viewBox="0 0 113 113" fill="none" xmlns="http://www.w3.org/2000/svg">
<mask id="mask0_208_11" style="mask-type:alpha" maskUnits="userSpaceOnUse" x="0" y="0" width="113" height="113">
<path d="M7.5 0C3.37646 0 0 3.37646 0 7.5V105C0 109.124 3.37646 112.5 7.5 112.5H105C109.124 112.5 112.5 109.124 112.5 105V7.5C112.5 3.37646 109.124 0 105 0H7.5ZM7.5 3.75H105C107.095 3.75 108.75 5.40527 108.75 7.5V105C108.75 107.095 107.095 108.75 105 108.75H7.5C5.40527 108.75 3.75 107.095 3.75 105V7.5C3.75 5.40527 5.40527 3.75 7.5 3.75ZM15 13.125C13.9673 13.125 13.125 13.9673 13.125 15C13.125 16.0327 13.9673 16.875 15 16.875C16.0327 16.875 16.875 16.0327 16.875 15C16.875 13.9673 16.0327 13.125 15 13.125ZM22.5 13.125C21.4673 13.125 20.625 13.9673 20.625 15C20.625 16.0327 21.4673 16.875 22.5 16.875C23.5327 16.875 24.375 16.0327 24.375 15C24.375 13.9673 23.5327 13.125 22.5 13.125ZM30 13.125C28.9673 13.125 28.125 13.9673 28.125 15C28.125 16.0327 28.9673 16.875 30 16.875C31.0327 16.875 31.875 16.0327 31.875 15C31.875 13.9673 31.0327 13.125 30 13.125ZM37.5 13.125C36.4673 13.125 35.625 13.9673 35.625 15C35.625 16.0327 36.4673 16.875 37.5 16.875C38.5327 16.875 39.375 16.0327 39.375 15C39.375 13.9673 38.5327 13.125 37.5 13.125ZM45 13.125C43.9673 13.125 43.125 13.9673 43.125 15C43.125 16.0327 43.9673 16.875 45 16.875C46.0327 16.875 46.875 16.0327 46.875 15C46.875 13.9673 46.0327 13.125 45 13.125ZM52.5 13.125C51.4673 13.125 50.625 13.9673 50.625 15C50.625 16.0327 51.4673 16.875 52.5 16.875C53.5327 16.875 54.375 16.0327 54.375 15C54.375 13.9673 53.5327 13.125 52.5 13.125ZM60 13.125C58.9673 13.125 58.125 13.9673 58.125 15C58.125 16.0327 58.9673 16.875 60 16.875C61.0327 16.875 61.875 16.0327 61.875 15C61.875 13.9673 61.0327 13.125 60 13.125ZM67.5 13.125C66.4673 13.125 65.625 13.9673 65.625 15C65.625 16.0327 66.4673 16.875 67.5 16.875C68.5327 16.875 69.375 16.0327 69.375 15C69.375 13.9673 68.5327 13.125 67.5 13.125ZM75 13.125C73.9673 13.125 73.125 13.9673 73.125 15C73.125 16.0327 73.9673 16.875 75 16.875C76.0327 16.875 76.875 16.0327 76.875 15C76.875 13.9673 76.0327 13.125 75 13.125ZM82.5 13.125C81.4673 13.125 80.625 13.9673 80.625 15C80.625 16.0327 81.4673 16.875 82.5 16.875C83.5327 16.875 84.375 16.0327 84.375 15C84.375 13.9673 83.5327 13.125 82.5 13.125ZM90 13.125C88.9673 13.125 88.125 13.9673 88.125 15C88.125 16.0327 88.9673 16.875 90 16.875C91.0327 16.875 91.875 16.0327 91.875 15C91.875 13.9673 91.0327 13.125 90 13.125ZM97.5 13.125C96.4673 13.125 95.625 13.9673 95.625 15C95.625 16.0327 96.4673 16.875 97.5 16.875C98.5327 16.875 99.375 16.0327 99.375 15C99.375 13.9673 98.5327 13.125 97.5 13.125ZM15 20.625C13.9673 20.625 13.125 21.4673 13.125 22.5C13.125 23.5327 13.9673 24.375 15 24.375C16.0327 24.375 16.875 23.5327 16.875 22.5C16.875 21.4673 16.0327 20.625 15 20.625ZM97.5 20.625C96.4673 20.625 95.625 21.4673 95.625 22.5C95.625 23.5327 96.4673 24.375 97.5 24.375C98.5327 24.375 99.375 23.5327 99.375 22.5C99.375 21.4673 98.5327 20.625 97.5 20.625ZM15 28.125C13.9673 28.125 13.125 28.9673 13.125 30C13.125 31.0327 13.9673 31.875 15 31.875C16.0327 31.875 16.875 31.0327 16.875 30C16.875 28.9673 16.0327 28.125 15 28.125ZM97.5 28.125C96.4673 28.125 95.625 28.9673 95.625 30C95.625 31.0327 96.4673 31.875 97.5 31.875C98.5327 31.875 99.375 31.0327 99.375 30C99.375 28.9673 98.5327 28.125 97.5 28.125ZM15 35.625C13.9673 35.625 13.125 36.4673 13.125 37.5C13.125 38.5327 13.9673 39.375 15 39.375C16.0327 39.375 16.875 38.5327 16.875 37.5C16.875 36.4673 16.0327 35.625 15 35.625ZM97.5 35.625C96.4673 35.625 95.625 36.4673 95.625 37.5C95.625 38.5327 96.4673 39.375 97.5 39.375C98.5327 39.375 99.375 38.5327 99.375 37.5C99.375 36.4673 98.5327 35.625 97.5 35.625ZM51.1377 42.4219C49.0796 42.4512 47.373 42.605 46.2891 43.125C45.3223 43.5864 44.5825 44.6118 45.0293 44.6777C45.5933 44.7437 46.8604 45.0073 47.5269 45.9009C48.3984 47.0581 48.3691 49.6509 48.3691 49.6509C48.3691 49.6509 48.8672 56.792 47.1973 57.6782C46.062 58.2861 44.4946 57.041 41.1401 51.3574C39.4189 48.4497 38.1152 45.2271 38.1152 45.2271C38.1152 45.2271 37.8662 44.6118 37.4194 44.2969C36.8774 43.9014 36.123 43.7622 36.123 43.7622H28.0884C28.0884 43.7622 26.8799 43.6963 26.4331 44.209C26.0376 44.6704 26.3965 45.4248 26.3965 45.4248C26.3965 45.4248 32.8711 59.2896 39.8145 66.7236C44.729 71.9824 49.2334 72.1875 53.7744 72.1875H57.1362C58.5278 72.1875 59.0552 71.8506 59.0552 71.1182C59.0552 69.0674 59.4214 67.0679 61.1572 66.5332C63.2227 65.9033 65.874 70.8032 68.6792 72.6855C70.8032 74.1211 72.4219 73.8062 72.4219 73.8062L79.9292 73.7036C79.9292 73.7036 83.8623 73.4692 82.002 70.437C81.8481 70.188 80.9106 68.2031 76.4136 64.1089C71.7041 59.8315 72.334 60.52 78.0103 53.1226C81.46 48.6182 82.7417 45.9009 82.4121 44.6851C82.1851 43.8428 80.8667 43.8574 79.4604 43.8574C78.0542 43.8574 71.6455 43.9087 71.0083 43.9087C70.3638 43.9087 70.3784 43.9014 69.9097 44.1797C69.4556 44.4434 69.1626 44.9854 69.1626 44.9854C69.1626 44.9854 67.8223 48.4717 66.0352 51.4453C62.2705 57.7002 60.769 58.0371 60.1465 57.6489C58.7183 56.7407 59.0845 54.0015 59.0845 52.0605C59.0845 45.9961 60.022 43.4619 57.2461 42.8027C56.3306 42.5903 55.6567 42.4512 53.3057 42.4219C52.5513 42.4146 51.8262 42.4146 51.1377 42.4219ZM15 43.125C13.9673 43.125 13.125 43.9673 13.125 45C13.125 46.0327 13.9673 46.875 15 46.875C16.0327 46.875 16.875 46.0327 16.875 45C16.875 43.9673 16.0327 43.125 15 43.125ZM97.5 43.125C96.4673 43.125 95.625 43.9673 95.625 45C95.625 46.0327 96.4673 46.875 97.5 46.875C98.5327 46.875 99.375 46.0327 99.375 45C99.375 43.9673 98.5327 43.125 97.5 43.125ZM15 50.625C13.9673 50.625 13.125 51.4673 13.125 52.5C13.125 53.5327 13.9673 54.375 15 54.375C16.0327 54.375 16.875 53.5327 16.875 52.5C16.875 51.4673 16.0327 50.625 15 50.625ZM97.5 50.625C96.4673 50.625 95.625 51.4673 95.625 52.5C95.625 53.5327 96.4673 54.375 97.5 54.375C98.5327 54.375 99.375 53.5327 99.375 52.5C99.375 51.4673 98.5327 50.625 97.5 50.625ZM15 58.125C13.9673 58.125 13.125 58.9673 13.125 60C13.125 61.0327 13.9673 61.875 15 61.875C16.0327 61.875 16.875 61.0327 16.875 60C16.875 58.9673 16.0327 58.125 15 58.125ZM97.5 58.125C96.4673 58.125 95.625 58.9673 95.625 60C95.625 61.0327 96.4673 61.875 97.5 61.875C98.5327 61.875 99.375 61.0327 99.375 60C99.375 58.9673 98.5327 58.125 97.5 58.125ZM15 65.625C13.9673 65.625 13.125 66.4673 13.125 67.5C13.125 68.5327 13.9673 69.375 15 69.375C16.0327 69.375 16.875 68.5327 16.875 67.5C16.875 66.4673 16.0327 65.625 15 65.625ZM97.5 65.625C96.4673 65.625 95.625 66.4673 95.625 67.5C95.625 68.5327 96.4673 69.375 97.5 69.375C98.5327 69.375 99.375 68.5327 99.375 67.5C99.375 66.4673 98.5327 65.625 97.5 65.625ZM15 73.125C13.9673 73.125 13.125 73.9673 13.125 75C13.125 76.0327 13.9673 76.875 15 76.875C16.0327 76.875 16.875 76.0327 16.875 75C16.875 73.9673 16.0327 73.125 15 73.125ZM97.5 73.125C96.4673 73.125 95.625 73.9673 95.625 75C95.625 76.0327 96.4673 76.875 97.5 76.875C98.5327 76.875 99.375 76.0327 99.375 75C99.375 73.9673 98.5327 73.125 97.5 73.125ZM15 80.625C13.9673 80.625 13.125 81.4673 13.125 82.5C13.125 83.5327 13.9673 84.375 15 84.375C16.0327 84.375 16.875 83.5327 16.875 82.5C16.875 81.4673 16.0327 80.625 15 80.625ZM97.5 80.625C96.4673 80.625 95.625 81.4673 95.625 82.5C95.625 83.5327 96.4673 84.375 97.5 84.375C98.5327 84.375 99.375 83.5327 99.375 82.5C99.375 81.4673 98.5327 80.625 97.5 80.625ZM15 88.125C13.9673 88.125 13.125 88.9673 13.125 90C13.125 91.0327 13.9673 91.875 15 91.875C16.0327 91.875 16.875 91.0327 16.875 90C16.875 88.9673 16.0327 88.125 15 88.125ZM97.5 88.125C96.4673 88.125 95.625 88.9673 95.625 90C95.625 91.0327 96.4673 91.875 97.5 91.875C98.5327 91.875 99.375 91.0327 99.375 90C99.375 88.9673 98.5327 88.125 97.5 88.125ZM15 95.625C13.9673 95.625 13.125 96.4673 13.125 97.5C13.125 98.5327 13.9673 99.375 15 99.375C16.0327 99.375 16.875 98.5327 16.875 97.5C16.875 96.4673 16.0327 95.625 15 95.625ZM22.5 95.625C21.4673 95.625 20.625 96.4673 20.625 97.5C20.625 98.5327 21.4673 99.375 22.5 99.375C23.5327 99.375 24.375 98.5327 24.375 97.5C24.375 96.4673 23.5327 95.625 22.5 95.625ZM30 95.625C28.9673 95.625 28.125 96.4673 28.125 97.5C28.125 98.5327 28.9673 99.375 30 99.375C31.0327 99.375 31.875 98.5327 31.875 97.5C31.875 96.4673 31.0327 95.625 30 95.625ZM37.5 95.625C36.4673 95.625 35.625 96.4673 35.625 97.5C35.625 98.5327 36.4673 99.375 37.5 99.375C38.5327 99.375 39.375 98.5327 39.375 97.5C39.375 96.4673 38.5327 95.625 37.5 95.625ZM45 95.625C43.9673 95.625 43.125 96.4673 43.125 97.5C43.125 98.5327 43.9673 99.375 45 99.375C46.0327 99.375 46.875 98.5327 46.875 97.5C46.875 96.4673 46.0327 95.625 45 95.625ZM52.5 95.625C51.4673 95.625 50.625 96.4673 50.625 97.5C50.625 98.5327 51.4673 99.375 52.5 99.375C53.5327 99.375 54.375 98.5327 54.375 97.5C54.375 96.4673 53.5327 95.625 52.5 95.625ZM60 95.625C58.9673 95.625 58.125 96.4673 58.125 97.5C58.125 98.5327 58.9673 99.375 60 99.375C61.0327 99.375 61.875 98.5327 61.875 97.5C61.875 96.4673 61.0327 95.625 60 95.625ZM67.5 95.625C66.4673 95.625 65.625 96.4673 65.625 97.5C65.625 98.5327 66.4673 99.375 67.5 99.375C68.5327 99.375 69.375 98.5327 69.375 97.5C69.375 96.4673 68.5327 95.625 67.5 95.625ZM75 95.625C73.9673 95.625 73.125 96.4673 73.125 97.5C73.125 98.5327 73.9673 99.375 75 99.375C76.0327 99.375 76.875 98.5327 76.875 97.5C76.875 96.4673 76.0327 95.625 75 95.625ZM82.5 95.625C81.4673 95.625 80.625 96.4673 80.625 97.5C80.625 98.5327 81.4673 99.375 82.5 99.375C83.5327 99.375 84.375 98.5327 84.375 97.5C84.375 96.4673 83.5327 95.625 82.5 95.625ZM90 95.625C88.9673 95.625 88.125 96.4673 88.125 97.5C88.125 98.5327 88.9673 99.375 90 99.375C91.0327 99.375 91.875 98.5327 91.875 97.5C91.875 96.4673 91.0327 95.625 90 95.625ZM97.5 95.625C96.4673 95.625 95.625 96.4673 95.625 97.5C95.625 98.5327 96.4673 99.375 97.5 99.375C98.5327 99.375 99.375 98.5327 99.375 97.5C99.375 96.4673 98.5327 95.625 97.5 95.625Z" fill="black"/>
</mask>
<g mask="url(#mask0_208_11)">
<rect x="-17" y="-13" width="146" height="139" fill="black"/>
</g>
</svg>
